<?xml version="1.0" encoding="utf-8"?>
<!-- Generator: Adobe Illustrator 18.1.1, SVG Export Plug-In . SVG Version: 6.00 Build 0)  -->
<!DOCTYPE svg PUBLIC "-//W3C//DTD SVG 1.1//EN" "http://www.w3.org/Graphics/SVG/1.1/DTD/svg11.dtd">
<svg version="1.1" xmlns="http://www.w3.org/2000/svg" xmlns:xlink="http://www.w3.org/1999/xlink" x="0px" y="0px" width="111.1px"
	 height="124.4px" viewBox="0 0 111.1 124.4" enable-background="new 0 0 111.1 124.4" xml:space="preserve">
<g id="Layer_1">
	<g id="safety_x5F_jacket_1_">
		
			<path fill="none" stroke="#808080" stroke-width="4.4444" stroke-linecap="round" stroke-linejoin="round" stroke-miterlimit="10" d="
			M55.6,108.9c0,7.4,6,13.3,13.3,13.3h40V55.6"/>
		
			<path fill="none" stroke="#808080" stroke-width="4.4444" stroke-linecap="round" stroke-linejoin="round" stroke-miterlimit="10" d="
			M2.2,55.6v66.7h40c7.4,0,13.3-6,13.3-13.3V46.7L68.9,2.2l22.2,4.4v31.1c0,9.8,8,17.8,17.8,17.8"/>
		
			<path fill="none" stroke="#808080" stroke-width="4.4444" stroke-linecap="round" stroke-linejoin="round" stroke-miterlimit="10" d="
			M2.2,55.6c9.8,0,17.8-8,17.8-17.8V6.7l17.8-4.4l17.8,44.4"/>
		
			<path fill="none" stroke="#808080" stroke-width="4.4444" stroke-linecap="round" stroke-linejoin="round" stroke-miterlimit="10" d="
			M68.9,2.2c0,2.5-7,4.4-15.6,4.4s-15.6-2-15.6-4.4"/>
		
			<line fill="none" stroke="#808080" stroke-width="4.4444" stroke-linecap="round" stroke-linejoin="round" stroke-miterlimit="10" x1="2.2" y1="68.9" x2="108.9" y2="68.9"/>
		
			<line fill="none" stroke="#808080" stroke-width="4.4444" stroke-linecap="round" stroke-linejoin="round" stroke-miterlimit="10" x1="2.2" y1="82.2" x2="108.9" y2="82.2"/>
		
			<line fill="none" stroke="#808080" stroke-width="4.4444" stroke-linecap="round" stroke-linejoin="round" stroke-miterlimit="10" x1="2.2" y1="95.6" x2="108.9" y2="95.6"/>
		
			<line fill="none" stroke="#808080" stroke-width="4.4444" stroke-linecap="round" stroke-linejoin="round" stroke-miterlimit="10" x1="2.2" y1="108.9" x2="108.9" y2="108.9"/>
	</g>
	<rect x="-106.9" y="-86.1" fill="none" stroke="#E4E4E4" stroke-miterlimit="10" width="325" height="363.6"/>
</g>
<g id="Layer_2" display="none">
</g>
</svg>
