<?xml version="1.0" encoding="utf-8"?>
<!-- Generator: Adobe Illustrator 18.1.1, SVG Export Plug-In . SVG Version: 6.00 Build 0)  -->
<!DOCTYPE svg PUBLIC "-//W3C//DTD SVG 1.1//EN" "http://www.w3.org/Graphics/SVG/1.1/DTD/svg11.dtd">
<svg version="1.1" xmlns="http://www.w3.org/2000/svg" xmlns:xlink="http://www.w3.org/1999/xlink" x="0px" y="0px" width="104.4px"
	 height="104.4px" viewBox="0 0 104.4 104.4" enable-background="new 0 0 104.4 104.4" xml:space="preserve">
<g id="Layer_1">
	<g>
		
			<path fill="none" stroke="#808080" stroke-width="4.4444" stroke-linecap="round" stroke-linejoin="round" stroke-miterlimit="10" d="
			M63.1,37.2C61.6,44.9,56.6,48,50.1,50"/>
		
			<path fill="none" stroke="#808080" stroke-width="4.4444" stroke-linecap="round" stroke-linejoin="round" stroke-miterlimit="10" d="
			M71.6,37.2c0,10-7.6,15.6-12.9,17.2"/>
		
			<path fill="none" stroke="#808080" stroke-width="4.4444" stroke-linecap="round" stroke-linejoin="round" stroke-miterlimit="10" d="
			M62.5,39.7c-9.9-3.1-16.8-9.9-16.8-17.9C45.7,11,58.4,2.2,74,2.2c15.6,0,28.3,8.8,28.3,19.6c0,10.8-12.7,19.6-28.3,19.6
			c-0.9,0-1.9,0-2.8-0.1"/>
		
			<path fill="none" stroke="#808080" stroke-width="4.4444" stroke-linecap="round" stroke-linejoin="round" stroke-miterlimit="10" d="
			M62.5,52.7c3.1,3.7,4.9,8,4.9,12.6c0,4-1.3,7.7-3.6,11l0,0l12.3,26L49,86.8l0,0c-4.3,1.5-9.1,2.4-14.1,2.4
			c-18,0-32.6-10.7-32.6-23.9c0-13.2,14.6-23.9,32.6-23.9c8.2,0,15.8,2.2,21.5,5.9"/>
	</g>
	<rect x="-59.3" y="-8.3" fill="none" stroke="#E3E3E3" stroke-miterlimit="10" width="218.7" height="218.7"/>
</g>
<g id="Layer_2" display="none">
</g>
</svg>
