<?xml version="1.0" encoding="utf-8"?>
<!-- Generator: Adobe Illustrator 18.1.1, SVG Export Plug-In . SVG Version: 6.00 Build 0)  -->
<!DOCTYPE svg PUBLIC "-//W3C//DTD SVG 1.1//EN" "http://www.w3.org/Graphics/SVG/1.1/DTD/svg11.dtd">
<svg version="1.1" xmlns="http://www.w3.org/2000/svg" xmlns:xlink="http://www.w3.org/1999/xlink" x="0px" y="0px" width="705.6px"
	 height="188.5px" viewBox="0 0 705.6 188.5" enable-background="new 0 0 705.6 188.5" xml:space="preserve">
<g id="Layer_1">
	<g>
		<g>
			<path fill="#F05A29" d="M186.3,72.6l31.8-14.4c0.3-0.1,0.5-0.6,0.5-0.8v-0.5c0-0.2-0.2-0.7-0.5-0.8l-31.8-14.5
				c-0.6-0.3-1.2,0.1-1.2,0.8v2.3v0.7v15.1c0,0.5,0.4,0.8,0.8,0.8c0.1,0,0.2,0,0.3-0.1h0l2.3-1.3c0.1,0,0.1,0,0.1-0.1
				c0.4-0.2,0.7-0.6,0.7-1.1V48l2.9,1.3l4.1,1.8l12.9,5.8v0.2L196.3,63v0l-4.1,1.8l-3.5,1.6l-3,1.3c-0.4,0.2-0.7,0.5-0.7,1.1v3
				C185,72.5,185.6,72.9,186.3,72.6z"/>
			<path fill="#1A2840" d="M0.2,4.7c0-1.6,1.4-3,3.1-3h10.6c1.6,0,3.1,1.5,3.1,3v106.4c0,1.6-1.4,3-3.1,3H3.3c-1.6,0-3.1-1.4-3.1-3
				V4.7z"/>
			<path fill="#1A2840" d="M38.8,97.9c1.4-2.1,2.7-4.5,4.2-6.6c1.5-2.1,3.7-2.7,5.5-1.3c1,0.8,13.3,11.1,25.7,11.1
				c11.1,0,18.2-6.8,18.2-15c0-9.6-8.4-15.8-24.3-22.3c-16.4-6.9-29.3-15.4-29.3-34.1C38.8,17.2,48.4,0,74,0
				c16.1,0,28.1,8.4,29.7,9.5c1.3,0.8,2.6,3.1,1,5.5c-1.3,1.9-2.7,4.2-4,6.1c-1.3,2.1-3.4,3.1-5.6,1.6c-1.1-0.7-12.4-8-21.7-8
				c-13.5,0-18.2,8.5-18.2,14.5c0,9.2,7.1,14.8,20.4,20.3c18.6,7.5,34.6,16.4,34.6,36c0,16.7-14.9,30.4-35.8,30.4
				c-19.6,0-32-10.3-34.6-12.7C38.3,101.8,37.2,100.6,38.8,97.9z"/>
			<path fill="#1A2840" d="M179.8,0c32.1,0,57.9,25.9,57.9,58s-25.7,57.7-57.9,57.7c-32.2,0-57.7-25.6-57.7-57.7S147.6,0,179.8,0z
				 M179.8,99.7c23,0,41.8-18.6,41.8-41.6c0-22.8-18.8-42-41.8-42c-22.8,0-41.6,19.1-41.6,42C138.1,81,156.9,99.7,179.8,99.7z"/>
			<path fill="#1A2840" d="M270.7,2.4c0.3-1.3,1.6-2.4,2.9-2.4h2.6c1,0,2.4,0.8,2.7,1.8l33.6,82.1h0.7l33.4-82.1
				c0.3-1,1.6-1.8,2.7-1.8h2.6c1.3,0,2.6,1.1,2.9,2.4l19.8,108c0.5,2.2-0.6,3.7-2.9,3.7h-10.5c-1.4,0-2.7-1.1-3.1-2.2L346.3,40
				c-0.2,0-0.5,0-0.5,0L316.9,114c-0.3,1-1.3,1.8-2.7,1.8h-2.9c-1.3,0-2.4-0.8-2.7-1.8L279.4,40c-0.2,0-0.5,0-0.7,0l-11.6,71.9
				c-0.2,1.1-1.6,2.2-2.9,2.2h-10.5c-2.2,0-3.4-1.4-3-3.7L270.7,2.4z"/>
			<path fill="#1A2840" d="M495,109.9L445.9,1.8c-0.5-1-1.9-1.8-2.7-1.8h-1.6c-0.8,0-2.3,0.8-2.8,1.8l-49.3,108.1
				c-1,2.1,0.3,4.2,2.7,4.2h7.8h2.4h51.2c1.6,0,2.8-1.3,2.8-2.8c0-0.4,0-0.8-0.2-1.1v-0.1l-4.5-7.9c-0.1-0.1-0.2-0.3-0.2-0.5
				c-0.7-1.4-2.2-2.3-3.8-2.3h-36.2l4.4-9.9l6.2-13.8l19.6-44h0.8l19.8,44h-0.1l6.2,13.8l5.4,12l4.6,10.1c0.6,1.4,1.8,2.4,3.7,2.4
				h10.1C494.6,114.2,495.9,112,495,109.9z"/>
			<path fill="#1A2840" d="M511,4.7c0-1.6,1.3-3,3.1-3h43.7c19.3,0,35,15.3,35,34.4c0,14.8-9.8,27-23.8,32.6l22,40.8
				c1.1,2.1,0,4.7-2.7,4.7h-12.5c-1.3,0-2.2-0.8-2.6-1.4l-21.4-42.6h-24.3v41c0,1.6-1.5,3-3.1,3h-10.4c-1.8,0-3.1-1.4-3.1-3V4.7z
				 M556.5,56.3c10.4,0,19.6-8.8,19.6-19.9c0-10.5-9.2-19.1-19.6-19.1h-28.6v39H556.5z"/>
			<g>
				<path fill="#1A2840" d="M631.7,10.4v-5c0-2.1-1.8-3.9-3.9-3.9h-9.3c-2.2,0-3.9,1.8-3.9,3.9v104.8c0,2.1,1.6,3.8,3.9,3.8h9.3
					c2.1,0,3.9-1.8,3.9-3.8V80.7V60.3V50V10.4z"/>
				<path fill="#1A2840" d="M664.4,61.3L664.4,61.3L664.4,61.3c-1.6-1.9-1.6-5,0-6.9l0,0l26.3-32.1l1.1-1.3l0,0l13-15.9
					c1.6-1.9,0.8-3.5-1.6-3.5h-11.8c-2.5,0-5.7,1.6-7.3,3.5l-40.4,49.3c-0.4,0.5-0.6,0.9-0.7,1.4c-0.5,1.3-0.5,2.8,0,4.2
					c0.1,0.4,0.3,0.9,0.7,1.4l40.4,49.3c1.6,1.9,4.8,3.5,7.3,3.5h11.8c2.5,0,3.2-1.6,1.6-3.5L664.4,61.3z"/>
			</g>
		</g>
		<path fill="#1A2840" d="M0,181.5v-29.9h4.5v29.9H0z"/>
		<path fill="#1A2840" d="M40.6,182.2l-14-15.3c-2.2-2.4-4.8-5.4-6.9-7.9l-0.1,0c0.1,2.7,0.1,5.2,0.1,7.5v15h-4.5v-29.9h3.1
			l12.8,14.1c1.7,1.9,4.4,4.9,6.3,7.2l0.1,0c-0.1-2.3-0.1-4.9-0.1-7v-14.1h4.5v30.5H40.6z"/>
		<path fill="#1A2840" d="M63.1,155.5v26h-4.5v-26H49v-3.9h23.7v3.9H63.1z"/>
		<path fill="#1A2840" d="M79.8,181.5v-29.9h16.1v3.9H84.4v9h9.7v3.9h-9.7v9.2h13.2v3.9H79.8z"/>
		<path fill="#1A2840" d="M120.6,182.1c-8.1,0-16.4-5.4-16.4-15.5c0-10.3,8.7-15.6,16.1-15.6c4.1,0,7.5,1,9.7,2.4l-0.8,3.9
			c-2.2-1.4-5.1-2.4-8.3-2.4c-5.9,0-12,3.8-12,11.7c0,7.7,6,11.5,12.1,11.5c2.8,0,4.9-0.6,6.3-1.5v-6.2h-6.9v-3.7h11.2v12.1
			C128.7,181.1,125.1,182.1,120.6,182.1z"/>
		<path fill="#1A2840" d="M159.2,181.5l-9.4-13.1h-4.2v13.1h-4.5v-29.9h9.5c4.2,0,9,2.7,9,8.4c0,4-2.3,6.5-5.2,7.7l10.2,13.8H159.2z
			 M149.8,155.5h-4.2v9.1h4.2c2.7,0,5.2-1.4,5.2-4.5C154.9,156.9,152.4,155.5,149.8,155.5z"/>
		<path fill="#1A2840" d="M191.3,181.5l-3.2-7.7h-11.6l-3.2,7.7h-4.5l12.7-30.3h1.6l12.7,30.3H191.3z M183.6,162.9
			c-0.4-1-0.9-2.4-1.3-3.7h-0.1c-0.3,1.3-0.8,2.7-1.3,3.7l-3,7.3h8.5L183.6,162.9z"/>
		<path fill="#1A2840" d="M211.5,155.5v26H207v-26h-9.6v-3.9h23.8v3.9H211.5z"/>
		<path fill="#1A2840" d="M228.2,181.5v-29.9h16.1v3.9h-11.6v9h9.7v3.9h-9.7v9.2h13.2v3.9H228.2z"/>
		<path fill="#1A2840" d="M262.9,181.5h-9.2v-29.9h9.2c8.3,0,16.2,5.3,16.2,14.9S271.3,181.5,262.9,181.5z M262.1,155.5h-3.9v22.2
			h3.9c6.7,0,12.3-3.5,12.3-11.1C274.5,159,268.9,155.5,262.1,155.5z"/>
		<path fill="#1A2840" d="M310.4,182.2c-3.7,0-6.9-0.9-9-2.5l-0.7-7c2.9,2.3,6,3.4,9.4,3.4c2.7,0,4.2-1.1,4.2-2.9c0-1.8-1-2.7-4.7-4
			c-5.2-1.8-8-5.2-8-9.3c0-5.1,3.8-9.1,10.4-9.1c3.7,0,6,0.9,7.3,1.8l-0.6,6.1c-1.4-0.9-3.8-1.9-6.2-1.9c-2.6,0-3.8,1.1-3.8,2.6
			c0,1.4,1,2.3,4.6,3.5c4.8,1.6,8.3,4.9,8.3,9.6C321.5,178.4,317.7,182.2,310.4,182.2z"/>
		<path fill="#1A2840" d="M348.1,181.5v-11.9h-11.6v11.9h-7.3v-29.9h7.3v11.8h11.6v-11.8h7.2v29.9H348.1z"/>
		<path fill="#1A2840" d="M364.2,181.5v-29.9h17.4v5.9h-10.2v6h8.3v6.1h-8.3v6h11.5v6H364.2z"/>
		<path fill="#1A2840" d="M419.7,188.4c-0.3,0.1-0.7,0.1-1.1,0.1c-2.9,0-5.3-0.7-8.2-2.4c-2.8-1.6-5.4-3.1-7.1-4
			c-7.3-0.9-14-6.6-14-15.5c0-9.6,7.8-15.7,16.1-15.7c8.3,0,16.1,6.1,16.1,15.7c0,6.8-4.5,12.2-9.5,13.8v0.1
			c0.9,0.2,1.7,0.5,3.6,1.5c1.7,0.9,3.5,1.2,4.8,1.2c1.1,0,2-0.1,3-0.5L419.7,188.4z M405.4,157.3c-4.5,0-8.7,3.7-8.7,9.3
			c0,5.5,4.2,9.2,8.7,9.2c4.4,0,8.7-3.7,8.7-9.2C414.1,161,409.8,157.3,405.4,157.3z"/>
		<path fill="#1A2840" d="M451.5,182.1c-3.2,0-6.2-1-7.7-2l-1-4.9c2.9,2,5.8,3,9,3c3.3,0,5.5-1.9,5.5-4.6c0-2.6-1.6-4.3-5.2-5.5
			c-5.3-1.7-8.2-4.7-8.2-8.9c0-4.2,3.1-8.2,9.5-8.2c3,0,5.4,1,6.5,1.8l-0.9,3.7c-1-0.7-3.4-1.7-5.8-1.7c-3.1,0-4.9,1.9-4.9,4.1
			c0,2,1.7,3.6,4.8,4.6c5.2,1.8,8.7,4.5,8.7,9.6C461.8,178.4,458.2,182.1,451.5,182.1z"/>
		<path fill="#1A2840" d="M484.8,182.1c-8,0-15.8-5.9-15.8-15.5c0-9.6,7.9-15.5,15.8-15.5c8,0,15.8,5.9,15.8,15.5
			C500.6,176.2,492.7,182.1,484.8,182.1z M484.8,155c-5.5,0-11.2,4.2-11.2,11.6c0,7.4,5.7,11.6,11.2,11.6c5.4,0,11.2-4.2,11.2-11.6
			C496,159.1,490.2,155,484.8,155z"/>
		<path fill="#1A2840" d="M509.3,181.5v-29.9h4.5v26H527v3.9H509.3z"/>
		<path fill="#1A2840" d="M546.3,182.1c-7,0-12.2-4.1-12.2-11.1v-19.4h4.5v18.9c0,4.5,2.5,7.6,7.7,7.6c5.2,0,7.7-3.1,7.7-7.6v-18.9
			h4.4V171C558.5,178,553.3,182.1,546.3,182.1z"/>
		<path fill="#1A2840" d="M579.7,155.5v26h-4.5v-26h-9.6v-3.9h23.7v3.9H579.7z"/>
		<path fill="#1A2840" d="M597.1,181.5v-29.9h4.5v29.9H597.1z"/>
		<path fill="#1A2840" d="M626.9,182.1c-8,0-15.8-5.9-15.8-15.5c0-9.6,7.9-15.5,15.8-15.5c8,0,15.8,5.9,15.8,15.5
			C642.7,176.2,634.8,182.1,626.9,182.1z M626.9,155c-5.5,0-11.2,4.2-11.2,11.6c0,7.4,5.7,11.6,11.2,11.6c5.4,0,11.2-4.2,11.2-11.6
			C638.1,159.1,632.3,155,626.9,155z"/>
		<path fill="#1A2840" d="M676.8,182.2l-14-15.3c-2.3-2.4-4.8-5.4-6.9-7.9l-0.1,0c0.1,2.7,0.1,5.2,0.1,7.5v15h-4.5v-29.9h3.1
			l12.8,14.1c1.7,1.9,4.5,4.9,6.3,7.2l0.1,0c-0.1-2.3-0.1-4.9-0.1-7v-14.1h4.6v30.5H676.8z"/>
		<path fill="#1A2840" d="M695.3,182.1c-3.2,0-6.2-1-7.7-2l-1-4.9c2.9,2,5.8,3,9,3c3.3,0,5.5-1.9,5.5-4.6c0-2.6-1.6-4.3-5.2-5.5
			c-5.3-1.7-8.2-4.7-8.2-8.9c0-4.2,3.1-8.2,9.5-8.2c3,0,5.4,1,6.5,1.8l-0.9,3.7c-1-0.7-3.4-1.7-5.8-1.7c-3,0-4.9,1.9-4.9,4.1
			c0,2,1.7,3.6,4.8,4.6c5.2,1.8,8.7,4.5,8.7,9.6C705.6,178.4,702,182.1,695.3,182.1z"/>
	</g>
</g>
<g id="Layer_2" display="none">
</g>
</svg>
